<?xml version="1.0"?>
<svg xmlns="http://www.w3.org/2000/svg" xmlns:xlink="http://www.w3.org/1999/xlink" xmlns:svgjs="http://svgjs.com/svgjs" version="1.1" width="512" height="512" x="0" y="0" viewBox="0 0 512 512" style="enable-background:new 0 0 512 512" xml:space="preserve" class=""><g>
<g xmlns="http://www.w3.org/2000/svg">
	<g>
		<path d="M452,50H60C26.916,50,0,76.916,0,110v292c0,33.084,26.916,60,60,60h392c33.084,0,60-26.916,60-60V110    C512,76.916,485.084,50,452,50z M156,422H60c-11.028,0-20-8.972-20-20v-62h116V422z M156,300H40v-88h116V300z M156,172H40v-62    c0-11.028,8.972-20,20-20h96V172z M317,422H196v-82h121V422z M317,300H196v-88h121V300z M317,172H196V90h121V172z M472,402    c0,11.028-8.972,20-20,20h-95v-82h115V402z M472,300H357v-88h115V300z M472,172H357V90h95c11.028,0,20,8.972,20,20V172z" fill="#666666" data-original="#000000" style="" class=""/>
	</g>
</g>
<g xmlns="http://www.w3.org/2000/svg">
</g>
<g xmlns="http://www.w3.org/2000/svg">
</g>
<g xmlns="http://www.w3.org/2000/svg">
</g>
<g xmlns="http://www.w3.org/2000/svg">
</g>
<g xmlns="http://www.w3.org/2000/svg">
</g>
<g xmlns="http://www.w3.org/2000/svg">
</g>
<g xmlns="http://www.w3.org/2000/svg">
</g>
<g xmlns="http://www.w3.org/2000/svg">
</g>
<g xmlns="http://www.w3.org/2000/svg">
</g>
<g xmlns="http://www.w3.org/2000/svg">
</g>
<g xmlns="http://www.w3.org/2000/svg">
</g>
<g xmlns="http://www.w3.org/2000/svg">
</g>
<g xmlns="http://www.w3.org/2000/svg">
</g>
<g xmlns="http://www.w3.org/2000/svg">
</g>
<g xmlns="http://www.w3.org/2000/svg">
</g>
</g></svg>
